<?xml version="1.0" standalone="no"?>
<!DOCTYPE svg PUBLIC "-//W3C//DTD SVG 20010904//EN"
 "http://www.w3.org/TR/2001/REC-SVG-20010904/DTD/svg10.dtd">
<svg version="1.0" xmlns="http://www.w3.org/2000/svg"
 width="460.000000pt" height="460.000000pt" viewBox="0 0 460.000000 460.000000"
 preserveAspectRatio="xMidYMid meet">
<metadata>
Created by potrace 1.11, written by Peter Selinger 2001-2013
</metadata>
<g transform="translate(0.000000,460.000000) scale(0.100000,-0.100000)"
fill="#000000" stroke="none">
<path d="M1925 4066 c-54 -17 -202 -93 -242 -123 -25 -19 -52 -27 -110 -34
-66 -7 -96 -18 -191 -66 -62 -32 -136 -79 -165 -104 -29 -26 -85 -63 -125 -83
-82 -41 -136 -86 -187 -156 -19 -26 -54 -60 -77 -75 -76 -51 -262 -245 -321
-335 -111 -172 -217 -392 -272 -570 -67 -213 -87 -312 -90 -445 -2 -71 -7
-223 -10 -337 -8 -228 2 -346 35 -412 46 -95 176 -206 241 -206 47 0 68 -28
94 -129 29 -107 52 -153 133 -266 103 -143 177 -180 389 -196 127 -9 183 -6
353 18 37 6 -38 10 -235 13 -279 5 -292 6 -343 29 -63 29 -125 94 -160 171
-30 66 -43 219 -22 273 17 42 234 481 308 622 32 61 96 184 143 275 47 91 114
217 150 280 l65 115 -2 299 -2 298 -46 47 c-25 26 -46 50 -46 54 0 4 176 7
390 7 215 0 390 -3 390 -8 0 -4 -20 -30 -45 -59 l-45 -51 0 -294 0 -293 29
-70 c16 -38 56 -125 90 -193 34 -68 72 -150 86 -182 14 -33 76 -162 139 -287
124 -248 185 -381 236 -513 43 -113 45 -205 7 -300 -24 -60 -24 -62 -4 -35 12
17 46 56 77 88 50 54 58 58 90 54 19 -3 53 -12 75 -20 22 -9 61 -16 87 -17 60
0 195 42 276 86 l62 35 113 -10 c61 -6 143 -11 181 -11 39 0 107 -5 152 -12
70 -10 90 -9 136 4 86 25 254 104 316 147 31 22 82 49 113 60 31 10 69 26 86
35 78 40 173 198 213 356 25 95 30 216 17 375 -11 128 -20 161 -58 218 -30 46
-31 50 -24 120 5 61 3 83 -16 136 -19 58 -20 69 -9 118 14 65 9 101 -29 185
-16 35 -38 93 -50 129 -12 36 -36 84 -54 105 -18 22 -50 62 -71 91 -20 29 -69
75 -109 104 -97 70 -120 92 -183 176 -36 48 -93 104 -178 173 -69 55 -144 125
-166 154 -67 88 -115 115 -299 166 -69 19 -171 60 -268 106 -167 80 -358 144
-428 144 -23 0 -68 -9 -99 -20 -63 -21 -62 -22 -191 34 -51 22 -74 25 -160 25
-55 0 -118 -6 -140 -13z m475 -431 c68 -35 105 -112 95 -199 -12 -112 -66
-176 -154 -183 -64 -6 -107 20 -145 88 -27 46 -31 64 -31 126 0 63 3 76 30
115 48 68 132 90 205 53z m-562 -161 c41 -27 74 -89 75 -141 1 -102 -63 -183
-146 -183 -30 0 -46 8 -82 41 -78 72 -85 175 -18 250 52 58 114 70 171 33z
m1025 -25 c12 -7 24 -15 27 -18 3 -3 22 -17 43 -31 50 -32 132 -142 192 -255
53 -100 56 -104 62 -89 6 16 70 116 93 144 11 14 20 28 20 33 0 4 7 7 15 7 23
0 55 32 55 56 0 24 66 89 107 105 34 13 57 4 98 -38 46 -47 53 -75 53 -197 0
-58 3 -110 6 -115 4 -6 13 -29 21 -52 17 -48 8 -100 -25 -142 -17 -22 -18 -26
-5 -37 12 -10 15 -10 15 2 0 14 94 38 150 38 19 0 20 -2 10 -15 -11 -13 -8
-15 25 -9 46 7 177 -21 205 -44 47 -38 34 -157 -23 -214 -18 -18 -38 -44 -46
-58 -18 -35 -136 -135 -161 -136 -21 -1 -54 -24 -45 -32 3 -3 0 -11 -5 -17
-15 -18 -4 -35 42 -73 30 -24 48 -32 64 -28 57 15 116 -45 119 -119 1 -17 14
-56 29 -86 38 -78 42 -115 17 -171 -23 -55 -26 -56 -161 -62 -147 -8 -150 -8
-227 12 l-71 19 4 -36 c2 -20 9 -70 14 -111 32 -239 -19 -410 -121 -410 -37 0
-119 62 -119 91 0 9 -8 19 -19 22 -22 5 -83 92 -136 195 -21 39 -41 72 -44 72
-3 0 -19 -24 -35 -53 -26 -47 -66 -107 -106 -161 -8 -11 -36 -42 -61 -68 -40
-42 -51 -48 -88 -48 -30 0 -41 -4 -41 -16 0 -13 -6 -12 -39 7 -25 14 -37 27
-34 36 3 8 -4 24 -16 37 -16 17 -22 38 -24 89 -2 37 0 67 4 67 4 0 5 24 2 53
-5 48 17 219 33 262 8 21 -41 20 -58 -1 -41 -52 -79 -84 -98 -84 -29 0 -61 17
-85 45 -14 16 -35 24 -71 28 -103 11 -164 65 -164 148 0 80 94 206 238 321 40
32 69 58 65 58 -12 0 -184 167 -181 177 5 19 -14 52 -27 47 -17 -7 -58 54 -50
74 3 8 0 10 -7 6 -7 -5 -9 -2 -6 8 4 8 2 35 -3 60 -30 140 110 189 364 128 53
-13 100 -20 103 -17 3 3 1 43 -5 88 -14 106 -14 175 1 198 9 15 6 34 -16 96
-16 46 -26 90 -23 109 5 41 32 92 54 105 24 14 69 14 96 0z m1010 -1666 c-7
-2 -19 -2 -25 0 -7 3 -2 5 12 5 14 0 19 -2 13 -5z"/>
<path d="M3484 3285 c-12 -8 -24 -12 -27 -8 -4 3 -22 -6 -42 -21 -35 -27 -65
-73 -65 -100 0 -8 -28 -60 -62 -116 l-61 -102 22 -51 c13 -29 29 -71 38 -94 8
-24 20 -43 26 -43 7 0 49 12 95 26 68 22 82 30 82 47 0 11 -6 28 -14 36 -50
59 -34 162 34 213 29 21 30 25 30 99 0 76 -11 129 -28 129 -4 0 -17 -7 -28
-15z"/>
<path d="M2906 3245 c-9 -14 -33 -33 -54 -43 -42 -19 -50 -45 -33 -102 5 -19
13 -67 16 -105 10 -107 29 -187 45 -195 8 -4 33 -16 55 -25 22 -10 48 -22 58
-27 34 -17 72 0 92 40 39 81 46 112 34 156 -17 63 -170 325 -190 326 -4 0 -14
-11 -23 -25z"/>
<path d="M3154 2795 c-10 -16 -20 -22 -24 -15 -11 17 -43 -65 -35 -90 8 -25
33 -24 100 4 l36 15 -27 53 c-14 29 -28 55 -29 56 -2 2 -11 -8 -21 -23z"/>
<path d="M2388 2779 c-22 -8 -26 -15 -22 -36 3 -15 14 -39 24 -54 11 -15 20
-34 20 -43 0 -9 8 -20 18 -23 9 -4 46 -37 82 -73 36 -36 85 -78 109 -94 38
-27 45 -28 64 -16 58 37 112 64 131 65 25 2 25 0 3 100 -27 119 -26 119 -98
138 -161 43 -276 56 -331 36z"/>
<path d="M3670 2759 c-14 -6 -28 -16 -32 -24 -5 -7 -26 -16 -48 -20 -33 -6
-41 -12 -46 -33 -16 -78 -41 -148 -58 -163 -25 -24 -15 -74 14 -66 11 3 20 2
20 -3 0 -4 12 -10 28 -13 15 -3 38 -15 51 -26 33 -28 46 -27 100 13 25 19 63
41 84 49 20 9 41 26 47 39 5 13 26 39 46 58 52 51 94 115 94 144 0 14 -1 26
-2 27 -2 0 -52 4 -113 9 -60 5 -121 11 -135 14 -14 3 -36 1 -50 -5z"/>
<path d="M2901 2633 c12 -61 20 -68 51 -44 32 25 43 61 20 61 -10 0 -26 7 -36
15 -36 27 -44 19 -35 -32z"/>
<path d="M3383 2658 c-18 -6 -33 -17 -33 -25 0 -17 40 -102 52 -109 18 -11 37
18 37 54 -1 21 2 49 6 65 8 31 -4 33 -62 15z"/>
<path d="M3240 2596 c0 -2 7 -7 16 -10 8 -3 12 -2 9 4 -6 10 -25 14 -25 6z"/>
<path d="M3090 2550 c0 -5 -13 -17 -29 -26 -21 -12 -37 -36 -55 -83 -32 -82
-32 -88 3 -184 26 -74 31 -81 79 -108 49 -29 52 -30 82 -14 18 9 38 14 46 11
7 -3 17 0 21 7 5 7 20 20 35 30 15 9 31 30 34 45 4 15 15 46 25 69 18 42 18
43 -7 115 l-24 73 -73 37 c-67 34 -137 48 -137 28z m130 -41 c14 -5 36 -26 50
-46 32 -48 35 -141 5 -191 -23 -38 -87 -72 -125 -66 -67 12 -127 102 -116 177
9 61 40 105 88 127 40 18 47 18 98 -1z"/>
<path d="M2825 2403 c-65 -33 -76 -43 -63 -56 20 -18 76 -57 83 -57 13 0 33
67 28 93 -7 36 -12 38 -48 20z"/>
<path d="M3448 2375 c-17 -39 0 -87 34 -91 19 -2 31 4 43 22 14 22 14 26 -2
52 -32 49 -57 56 -75 17z"/>
<path d="M2605 2264 c-89 -67 -193 -162 -226 -207 -49 -67 -38 -92 41 -102 53
-6 57 -6 68 19 14 31 67 60 97 52 13 -3 36 -19 51 -35 19 -21 32 -27 43 -22 9
5 33 11 53 15 33 6 45 18 53 56 1 3 7 30 13 60 7 30 17 62 22 70 7 11 -5 23
-49 52 -32 20 -69 48 -82 62 l-25 24 -59 -44z"/>
<path d="M3586 2231 c-27 -16 -55 -27 -62 -24 -23 9 -37 -37 -30 -99 6 -60 48
-167 66 -169 17 -2 23 -4 75 -22 28 -9 72 -19 100 -23 28 -3 55 -13 61 -22 21
-28 91 -20 125 15 27 26 28 32 18 61 -9 28 -16 32 -45 32 -53 0 -93 26 -115
74 -10 23 -16 54 -14 69 4 18 -1 33 -13 44 -23 23 -102 87 -111 90 -3 2 -28
-10 -55 -26z"/>
<path d="M2885 2090 c-9 -52 -8 -55 13 -55 9 0 20 -4 23 -8 3 -4 18 -3 33 3
23 8 27 15 24 42 -2 18 -7 31 -12 30 -5 -2 -12 0 -15 6 -3 5 -18 12 -33 15
-24 6 -27 4 -33 -33z"/>
<path d="M3371 2115 c-14 -7 -31 -29 -38 -49 l-12 -37 45 -20 c71 -30 73 -28
58 42 -15 74 -22 82 -53 64z"/>
<path d="M3110 1983 c0 -23 31 -103 39 -103 4 0 17 20 28 44 l22 44 -24 16
c-32 21 -65 21 -65 -1z"/>
<path d="M2925 1931 c-45 -14 -82 -28 -83 -31 -12 -22 -51 -222 -58 -295 -4
-33 -11 -65 -16 -72 -6 -7 -6 -19 1 -32 6 -11 11 -28 11 -39 0 -11 8 -30 18
-42 l17 -22 53 42 c28 23 52 46 52 50 0 5 8 11 18 14 21 8 76 81 78 104 1 9
20 50 42 90 l41 73 -19 32 c-10 18 -28 58 -40 89 -12 32 -24 59 -28 61 -4 3
-43 -7 -87 -22z"/>
<path d="M3260 1894 c-12 -24 -27 -44 -31 -44 -12 0 -51 -78 -41 -82 4 -2 29
-46 56 -98 27 -52 63 -117 81 -145 18 -27 35 -63 39 -78 4 -19 12 -27 20 -24
8 3 24 -5 37 -19 24 -25 36 -29 56 -16 30 19 25 261 -8 429 -9 45 -14 54 -37
59 -15 4 -54 19 -88 34 l-61 27 -23 -43z"/>
<path d="M1507 2664 c-4 -4 -7 -18 -7 -31 0 -16 6 -23 20 -23 11 0 20 6 20 13
0 19 -24 49 -33 41z"/>
<path d="M1554 2245 c-12 -18 -15 -38 -11 -66 10 -78 77 -114 126 -68 l22 21
-34 33 c-18 18 -41 49 -51 69 -20 43 -30 45 -52 11z"/>
<path d="M1190 1911 c0 -17 4 -32 9 -36 12 -7 71 -93 71 -103 0 -8 6 -12 142
-94 82 -50 110 -62 183 -75 82 -15 116 -12 85 7 -8 5 -33 12 -55 16 -22 3 -58
15 -79 25 -22 11 -43 19 -47 19 -17 0 -122 70 -162 107 -58 55 -108 114 -120
140 -14 32 -27 29 -27 -6z"/>
<path d="M1080 1776 c-11 -14 -7 -16 30 -16 29 0 40 4 38 13 -7 18 -53 20 -68
3z"/>
<path d="M1210 1630 c-6 -11 -8 -20 -6 -20 3 0 10 9 16 20 6 11 8 20 6 20 -3
0 -10 -9 -16 -20z"/>
<path d="M1837 1596 c10 -13 20 -20 21 -15 5 12 -17 39 -30 39 -5 0 -1 -11 9
-24z"/>
<path d="M944 1525 c-11 -17 -14 -35 -10 -59 6 -31 4 -35 -21 -44 -23 -8 -44
-39 -110 -163 -114 -216 -111 -201 -60 -243 55 -45 114 -65 209 -73 l78 -6 24
-52 c26 -58 66 -88 134 -104 40 -8 75 -28 141 -80 l25 -19 -55 -17 c-56 -18
-275 -30 -231 -14 12 5 31 12 42 17 11 4 -36 7 -106 7 -98 1 -127 4 -134 15
-6 8 -10 11 -10 6 0 -5 -9 -1 -20 9 -29 27 -25 38 13 31 56 -10 52 8 -5 26
-29 9 -43 17 -31 17 35 1 36 19 1 26 -17 4 -38 14 -46 21 -12 13 -8 14 30 9
l43 -5 -47 17 c-61 23 -66 30 -20 25 28 -2 33 -1 22 7 -8 6 -21 11 -29 11 -8
0 -29 11 -47 25 -18 14 -35 25 -38 25 -12 0 -5 -23 12 -38 10 -10 12 -13 5 -8
-22 15 -30 -4 -8 -20 16 -12 17 -16 6 -23 -12 -8 -12 -14 -1 -40 7 -17 17 -31
22 -31 5 0 7 -4 4 -9 -13 -20 60 -96 119 -126 l60 -30 212 -3 213 -4 56 32
c31 17 65 30 77 28 19 -3 18 -6 -13 -22 -19 -11 -46 -23 -60 -28 -17 -5 -9 -6
25 -2 28 3 104 9 170 14 66 5 156 14 200 20 115 15 127 17 160 19 38 2 17 17
-37 26 -46 8 -49 25 -8 44 17 7 54 30 83 52 28 21 55 39 59 39 4 0 40 15 80
34 40 19 90 41 111 49 25 11 37 22 37 36 0 31 -11 31 -70 1 -154 -80 -159 -81
-234 -78 l-71 3 0 -50 c0 -47 -2 -51 -35 -67 -47 -24 -141 -23 -216 2 -33 10
-88 21 -123 23 -85 6 -140 46 -167 120 -10 26 -43 21 -55 -9 -9 -26 -12 -26
-66 -20 -74 9 -113 36 -113 81 0 39 -25 69 -49 60 -37 -15 -81 -17 -117 -5
-22 7 -39 11 -40 9 0 -2 -8 2 -17 10 -10 7 -17 10 -17 5 -1 -5 -10 8 -21 29
-11 20 -23 37 -28 37 -16 0 -23 78 -11 114 14 42 97 121 131 123 13 1 25 7 27
13 2 5 13 10 25 10 21 0 21 1 -3 20 -21 16 -22 20 -7 20 17 0 262 -101 329
-136 25 -13 257 -54 304 -54 20 0 17 27 -3 35 -10 4 -33 9 -52 11 -19 3 -55 9
-80 15 -25 6 -69 14 -98 19 -28 5 -87 23 -130 40 -43 18 -82 33 -88 34 -71 18
-131 63 -171 129 -20 31 -37 57 -39 57 -3 0 -12 -11 -21 -25z m427 -861 c-19
-8 -37 -12 -40 -9 -9 10 22 25 49 24 23 0 22 -1 -9 -15z m-76 -24 c-27 -12
-43 -12 -25 0 8 5 22 9 30 9 10 0 8 -3 -5 -9z"/>
<path d="M1392 1221 c-17 -10 -52 -80 -57 -113 -5 -40 3 -34 25 16 10 25 28
54 40 66 22 22 16 46 -8 31z"/>
<path d="M1321 1034 c0 -11 3 -14 6 -6 3 7 2 16 -1 19 -3 4 -6 -2 -5 -13z"/>
<path d="M2381 1045 c1 -19 18 -51 18 -35 0 8 -4 22 -9 30 -5 8 -9 11 -9 5z"/>
<path d="M890 700 c8 -5 26 -10 39 -10 32 0 24 6 -19 14 -25 4 -31 3 -20 -4z"/>
</g>
</svg>
